<?xml version="1.0" encoding="utf-8"?>
<!-- Generator: Adobe Illustrator 23.0.3, SVG Export Plug-In . SVG Version: 6.00 Build 0)  -->
<svg version="1.1" id="Layer_1" xmlns="http://www.w3.org/2000/svg" xmlns:xlink="http://www.w3.org/1999/xlink" x="0px" y="0px"
	 viewBox="0 0 1723.72 683.07" style="enable-background:new 0 0 1723.72 683.07;" xml:space="preserve">
<style type="text/css">
	.st0{fill:#414042;}
	.st1{fill:#A7A9AC;}
	.st2{fill:#E34B4B;}
</style>
<g>
	<g>
		<path class="st0" d="M154.7,155.11v-0.53l2.65-1.33l0.7-18.17l-2.85-1.33v-0.53h6.6l7.43,17.15l7.39-17.15h6.34v0.53l-2.82,1.23
			l0.56,18.27l2.38,1.33v0.53h-8.19v-0.53l2.48-1.29l-0.33-16.22l-7.83,18.21h-1.59l-7.76-18.01l-0.43,16.03l2.75,1.29v0.53
			C162.19,155.11,154.7,155.11,154.7,155.11z"/>
		<path class="st0" d="M186.58,155.11v-0.53l2.12-1.07v-9.91l-2.02-1.69v-0.26l4.91-1.82h0.23v13.7l2.06,1.07v0.53L186.58,155.11
			L186.58,155.11z M190.17,135.97c-0.6,0-1.09-0.2-1.49-0.6s-0.6-0.89-0.6-1.49c0-0.62,0.2-1.12,0.6-1.51
			c0.4-0.39,0.89-0.58,1.49-0.58s1.09,0.19,1.49,0.58c0.4,0.39,0.6,0.89,0.6,1.51c0,0.6-0.2,1.09-0.6,1.49
			S190.76,135.97,190.17,135.97z"/>
		<path class="st0" d="M196.96,155.11v-0.53l2.12-1.07v-9.91l-2.02-1.66v-0.26l4.58-1.86h0.23l0.3,2.46h0.16
			c0.84-0.82,1.64-1.44,2.42-1.84c0.78-0.41,1.64-0.61,2.62-0.61c1.28,0,2.35,0.33,3.2,0.98c0.85,0.65,1.28,1.63,1.28,2.93v9.79
			l2.09,1.07v0.53h-7.43v-0.53l2.18-1.07v-8.25c0-0.95-0.29-1.66-0.87-2.14s-1.32-0.71-2.22-0.71c-0.55,0-1.16,0.09-1.82,0.26
			c-0.67,0.18-1.19,0.45-1.59,0.83v10.02l2.18,1.07v0.53L196.96,155.11L196.96,155.11z"/>
		<path class="st0" d="M216.7,155.11v-0.53l2.12-1.07v-9.91l-2.02-1.69v-0.26l4.91-1.82h0.23v13.7l2.06,1.07v0.53L216.7,155.11
			L216.7,155.11z M220.28,135.97c-0.6,0-1.09-0.2-1.49-0.6c-0.4-0.4-0.6-0.89-0.6-1.49c0-0.62,0.2-1.12,0.6-1.51
			c0.4-0.39,0.89-0.58,1.49-0.58s1.09,0.19,1.49,0.58c0.4,0.39,0.6,0.89,0.6,1.51c0,0.6-0.2,1.09-0.6,1.49
			S220.88,135.97,220.28,135.97z"/>
		<path class="st0" d="M227.08,155.11v-0.53l2.12-1.07v-9.91l-2.02-1.66v-0.26l4.58-1.86h0.23l0.3,2.46h0.16
			c0.84-0.82,1.64-1.44,2.42-1.84c0.78-0.41,1.64-0.61,2.62-0.61c1.28,0,2.35,0.33,3.2,0.98c0.85,0.65,1.28,1.63,1.28,2.93v9.79
			l2.09,1.07v0.53h-7.43v-0.53l2.18-1.07v-8.25c0-0.95-0.29-1.66-0.87-2.14s-1.32-0.71-2.22-0.71c-0.55,0-1.16,0.09-1.82,0.26
			c-0.67,0.18-1.19,0.45-1.59,0.83v10.02l2.18,1.07v0.53L227.08,155.11L227.08,155.11z"/>
		<path class="st0" d="M253.75,150.33c-0.99,0-1.91-0.18-2.75-0.53c-0.4,0.18-0.68,0.4-0.85,0.66c-0.16,0.26-0.25,0.55-0.25,0.87
			c0,1.11,0.79,1.66,2.39,1.66h3.92c1.63,0,2.84,0.36,3.63,1.07s1.17,1.79,1.17,3.21c0,0.95-0.33,1.88-0.98,2.77
			s-1.58,1.63-2.77,2.18c-1.19,0.56-2.61,0.85-4.24,0.85c-2.1,0-3.61-0.37-4.54-1.11s-1.39-1.65-1.39-2.74c0-0.79,0.2-1.51,0.6-2.12
			l2.26-1.46v-0.16c-0.84-0.18-1.48-0.51-1.92-1.01s-0.67-1.11-0.67-1.84c0-0.87,0.3-1.59,0.89-2.18l1.79-0.97v-0.2
			c-0.7-0.46-1.26-1.07-1.68-1.79c-0.41-0.73-0.61-1.53-0.61-2.42c0-0.99,0.26-1.89,0.78-2.69c0.52-0.79,1.24-1.42,2.14-1.88
			c0.9-0.45,1.93-0.68,3.09-0.68c0.51,0,1.05,0.06,1.61,0.18c0.56,0.13,1.05,0.27,1.44,0.45l4.97-0.3v1.82l-3.15-0.2l-0.14,0.14
			c0.38,0.38,0.68,0.85,0.91,1.43c0.23,0.58,0.35,1.15,0.35,1.72c0,0.99-0.26,1.89-0.79,2.69s-1.25,1.43-2.14,1.89
			C255.92,150.1,254.9,150.33,253.75,150.33z M249.54,158.79c0,0.95,0.36,1.73,1.09,2.36c0.73,0.62,1.66,0.93,2.79,0.93
			c0.98,0,1.81-0.19,2.54-0.56c0.72-0.38,1.28-0.87,1.69-1.46c0.41-0.6,0.61-1.23,0.61-1.89c0-0.95-0.25-1.61-0.76-1.98
			c-0.51-0.36-1.41-0.55-2.69-0.55h-3.39c-0.11,0-0.23,0-0.33,0c-0.58,0.33-0.98,0.76-1.21,1.27
			C249.65,157.44,249.54,158.06,249.54,158.79z M254.05,148.94c0.84,0,1.5-0.37,1.98-1.11c0.48-0.74,0.71-1.63,0.71-2.67
			c0-1.24-0.31-2.22-0.93-2.93c-0.62-0.71-1.37-1.07-2.26-1.07c-0.9,0-1.6,0.37-2.08,1.11s-0.71,1.64-0.71,2.7
			c0,1.17,0.31,2.13,0.91,2.87C252.28,148.57,253.08,148.94,254.05,148.94z"/>
	</g>
	<g>
		<path class="st1" d="M1358.42,535.68v-0.53l2.69-1.33v-18.17l-2.69-1.33v-0.53h9.22c2.32,0,4.15,0.48,5.49,1.44
			c1.34,0.97,2,2.28,2,3.96c0,1.24-0.42,2.33-1.26,3.29c-0.84,0.95-1.95,1.68-3.31,2.18l6.27,9.25l2.22,1.23v0.53h-5.35l-6.37-10.09
			h-2.75v8.2l2.49,1.36v0.53L1358.42,535.68L1358.42,535.68z M1366.54,515.61h-1.96v8.23h2.16c1.37,0,2.5-0.39,3.4-1.17
			c0.89-0.79,1.35-1.79,1.35-3c0-1.26-0.43-2.25-1.31-2.97C1369.3,515.97,1368.09,515.61,1366.54,515.61z"/>
		<path class="st1" d="M1387.47,536.02c-2.17,0-3.88-0.65-5.14-1.96s-1.89-3.04-1.89-5.21c0-1.63,0.33-3.1,1.01-4.38
			s1.57-2.28,2.69-3.01c1.12-0.72,2.33-1.07,3.63-1.07c1.77,0,3.15,0.6,4.14,1.81c0.99,1.2,1.51,2.93,1.53,5.19l-0.16,0.16h-9.79
			c0.02,1.02,0.22,1.96,0.58,2.82c0.36,0.87,0.95,1.56,1.76,2.09s1.9,0.79,3.27,0.79c1.26,0,2.69-0.42,4.28-1.26h0.1v0.4
			c-0.53,1.02-1.32,1.88-2.36,2.57C1390.09,535.65,1388.86,536.02,1387.47,536.02z M1387.17,521.85c-0.98,0-1.78,0.36-2.4,1.09
			c-0.63,0.73-1.03,1.76-1.21,3.09h7.07c-0.22-1.51-0.62-2.57-1.19-3.21C1388.85,522.17,1388.1,521.85,1387.17,521.85z"/>
		<path class="st1" d="M1403.6,536.02c-2.15,0-3.85-0.65-5.11-1.96s-1.89-3.04-1.89-5.21c0-1.63,0.33-3.1,1.01-4.38
			s1.6-2.28,2.77-3.01c1.17-0.72,2.51-1.07,4.02-1.07c0.93,0,1.81,0.15,2.65,0.45s1.48,0.7,1.92,1.17c0.33,0.4,0.5,0.73,0.5,0.99
			c0,0.18-0.03,0.32-0.08,0.42c-0.05,0.1-0.16,0.23-0.32,0.38l-1.36,1.09h-0.23l-1.13-1.53c-0.33-0.46-0.73-0.83-1.19-1.11
			c-0.46-0.28-1.05-0.42-1.76-0.42c-1.17,0-2.09,0.49-2.75,1.46c-0.66,0.98-0.99,2.31-0.99,4.02c0,1.04,0.17,2.01,0.51,2.92
			c0.34,0.9,0.92,1.63,1.72,2.18c0.8,0.55,1.91,0.83,3.3,0.83c0.61,0,1.28-0.11,1.99-0.32c0.7-0.21,1.46-0.52,2.26-0.95h0.1v0.4
			c-0.51,1.02-1.28,1.88-2.32,2.57C1406.17,535.66,1404.96,536.02,1403.6,536.02z"/>
		<path class="st1" d="M1413.71,543.67c-0.51,0-0.82-0.07-0.95-0.22c-0.12-0.14-0.18-0.39-0.18-0.75v-1.79l0.14-0.16h1.53
			c0.55,0,0.98-0.05,1.29-0.14s0.6-0.33,0.87-0.71c0.26-0.39,0.6-1.04,0.99-1.94l1.09-2.49l-6.2-13.24l-2.18-0.99v-0.53h8.23v0.53
			l-2.59,0.99v0.16l4.24,9.16h0.14l3.49-8.99v-0.16l-2.36-1.16v-0.53h6.46v0.53l-2.46,1.09l-6.56,15.95
			c-0.2,0.51-0.37,0.93-0.51,1.28c-0.14,0.34-0.31,0.68-0.48,0.99c-0.18,0.33-0.43,0.71-0.76,1.17c-0.44,0.64-0.95,1.12-1.53,1.44
			C1414.83,543.51,1414.26,543.67,1413.71,543.67z"/>
		<path class="st1" d="M1435.4,536.02c-2.15,0-3.85-0.65-5.11-1.96s-1.89-3.04-1.89-5.21c0-1.63,0.33-3.1,1.01-4.38
			s1.6-2.28,2.77-3.01c1.17-0.72,2.51-1.07,4.02-1.07c0.93,0,1.81,0.15,2.65,0.45s1.48,0.7,1.92,1.17c0.33,0.4,0.5,0.73,0.5,0.99
			c0,0.18-0.03,0.32-0.08,0.42s-0.16,0.23-0.32,0.38l-1.36,1.09h-0.23l-1.13-1.53c-0.33-0.46-0.73-0.83-1.19-1.11
			c-0.46-0.28-1.05-0.42-1.76-0.42c-1.17,0-2.09,0.49-2.75,1.46c-0.67,0.98-0.99,2.31-0.99,4.02c0,1.04,0.17,2.01,0.51,2.92
			c0.34,0.9,0.92,1.63,1.72,2.18c0.8,0.55,1.91,0.83,3.3,0.83c0.62,0,1.28-0.11,1.99-0.32c0.7-0.21,1.46-0.52,2.26-0.95h0.1v0.4
			c-0.51,1.02-1.28,1.88-2.32,2.57C1437.99,535.65,1436.78,536.02,1435.4,536.02z"/>
		<path class="st1" d="M1444.13,535.68v-0.53l2.09-1.07v-19.5l-1.99-1.69v-0.26l4.88-1.82h0.26v23.28l2.06,1.07v0.53L1444.13,535.68
			L1444.13,535.68z"/>
		<path class="st1" d="M1461.34,536.02c-2.17,0-3.88-0.65-5.15-1.96c-1.26-1.31-1.89-3.04-1.89-5.21c0-1.63,0.33-3.1,1.01-4.38
			s1.57-2.28,2.69-3.01c1.12-0.72,2.33-1.07,3.63-1.07c1.77,0,3.15,0.6,4.14,1.81c0.99,1.2,1.51,2.93,1.53,5.19l-0.16,0.16h-9.79
			c0.02,1.02,0.22,1.96,0.58,2.82c0.36,0.87,0.95,1.56,1.76,2.09c0.8,0.53,1.9,0.79,3.27,0.79c1.26,0,2.69-0.42,4.28-1.26h0.1v0.4
			c-0.53,1.02-1.32,1.88-2.36,2.57C1463.95,535.66,1462.73,536.02,1461.34,536.02z M1461.05,521.85c-0.98,0-1.78,0.36-2.4,1.09
			c-0.63,0.73-1.04,1.76-1.21,3.09h7.07c-0.23-1.51-0.62-2.57-1.19-3.21C1462.72,522.17,1461.98,521.85,1461.05,521.85z"/>
	</g>
	<g>
		<path class="st0" d="M571.85,155.11v-0.53l2.65-1.33l0.7-18.17l-2.85-1.33v-0.53h6.6l7.43,17.15l7.39-17.15h6.34v0.53l-2.82,1.23
			l0.56,18.27l2.38,1.33v0.53h-8.19v-0.53l2.48-1.29l-0.33-16.22l-7.83,18.21h-1.59l-7.76-18.01l-0.43,16.03l2.75,1.29v0.53
			C579.34,155.11,571.85,155.11,571.85,155.11z"/>
		<path class="st0" d="M607.25,155.44c-1.06,0-1.94-0.32-2.64-0.95c-0.7-0.63-1.05-1.5-1.05-2.6c0-1.08,0.39-2.01,1.17-2.8
			c0.79-0.79,2.15-1.41,4.1-1.88l3.15-0.73v-2.32c0-0.79-0.29-1.46-0.88-1.99s-1.26-0.79-2.04-0.79c-0.82,0-1.39,0.21-1.71,0.63
			c-0.33,0.42-0.48,0.99-0.48,1.72v1.07l-0.16,0.16h-1.82c-0.33,0-0.56-0.06-0.68-0.18s-0.18-0.38-0.18-0.78
			c0-0.49,0.15-0.98,0.45-1.47s0.76-0.93,1.37-1.31c0.67-0.42,1.34-0.76,2.02-1.01s1.42-0.38,2.18-0.38c0.84,0,1.65,0.12,2.44,0.35
			c0.79,0.23,1.42,0.62,1.91,1.17s0.73,1.29,0.73,2.22v9.25c0.15,0.15,0.37,0.29,0.65,0.4s0.66,0.16,1.15,0.16h1.16l0.14,0.06v0.2
			c-0.26,0.46-0.67,0.88-1.21,1.25c-0.54,0.36-1.2,0.55-1.98,0.55c-0.75,0-1.36-0.18-1.82-0.55c-0.46-0.36-0.79-0.87-0.99-1.51H612
			c-0.58,0.58-1.27,1.07-2.1,1.46C609.06,155.24,608.17,155.44,607.25,155.44z M606.58,151.16c0,1.37,0.8,2.06,2.42,2.06
			c0.49,0,0.96-0.05,1.41-0.15c0.45-0.1,0.98-0.27,1.58-0.51v-4.91c-1.59,0.31-2.77,0.64-3.55,0.99c-0.78,0.35-1.28,0.73-1.51,1.15
			C606.7,150.19,606.58,150.65,606.58,151.16z"/>
		<path class="st0" d="M619.98,155.11v-0.53l2.12-1.07v-9.91l-2.02-1.66v-0.26l4.58-1.86h0.23l0.3,2.46h0.16
			c0.84-0.82,1.64-1.44,2.42-1.84c0.78-0.41,1.64-0.61,2.62-0.61c1.28,0,2.35,0.33,3.2,0.98c0.85,0.65,1.28,1.63,1.28,2.93v9.79
			l2.09,1.07v0.53h-7.43v-0.53l2.18-1.07v-8.25c0-0.95-0.29-1.66-0.87-2.14s-1.32-0.71-2.22-0.71c-0.55,0-1.16,0.09-1.82,0.26
			c-0.67,0.18-1.19,0.45-1.59,0.83v10.02l2.18,1.07v0.53L619.98,155.11L619.98,155.11z"/>
		<path class="st0" d="M645.5,155.44c-1.31,0-2.37-0.33-3.21-0.99c-0.83-0.66-1.25-1.63-1.25-2.92v-9.82l-2.12-1.03v-0.53h5.24V150
			c0,0.93,0.28,1.63,0.85,2.12c0.56,0.49,1.3,0.73,2.2,0.73c0.55,0,1.16-0.09,1.82-0.28c0.67-0.19,1.19-0.47,1.59-0.85V141.7
			l-2.26-1.03v-0.53h5.41v13.47l2.29,0.97v0.53h-5.44v-2.09h-0.16c-0.82,0.82-1.62,1.43-2.39,1.82
			C647.29,155.24,646.45,155.44,645.5,155.44z"/>
		<path class="st0" d="M658.6,155.11v-0.53l2.12-1.07v-11.84h-2.59v-1.53h2.59v-1.26c0-0.49,0.13-1.09,0.38-1.81
			s0.61-1.48,1.07-2.28c0.46-0.79,1.02-1.53,1.68-2.22c0.65-0.69,1.38-1.25,2.18-1.69s1.66-0.66,2.57-0.66c0.2,0,0.42,0.04,0.65,0.1
			s0.42,0.14,0.58,0.2c0.64,0.29,0.97,0.6,0.97,0.93c0,0.14-0.05,0.33-0.16,0.6l-0.7,1.66h-0.26l-0.83-0.33
			c-0.64-0.29-1.35-0.43-2.12-0.43c-1.17,0-1.95,0.38-2.32,1.15c-0.38,0.76-0.56,1.94-0.56,3.53v2.52h4.28v1.53h-4.28v11.91
			l2.42,0.99v0.53C666.27,155.11,658.6,155.11,658.6,155.11z"/>
		<path class="st0" d="M673.66,155.44c-1.06,0-1.94-0.32-2.64-0.95c-0.7-0.63-1.05-1.5-1.05-2.6c0-1.08,0.39-2.01,1.17-2.8
			c0.79-0.79,2.15-1.41,4.1-1.88l3.15-0.73v-2.32c0-0.79-0.29-1.46-0.88-1.99s-1.26-0.79-2.04-0.79c-0.82,0-1.39,0.21-1.71,0.63
			c-0.33,0.42-0.48,0.99-0.48,1.72v1.07l-0.16,0.16h-1.82c-0.33,0-0.56-0.06-0.68-0.18s-0.18-0.38-0.18-0.78
			c0-0.49,0.15-0.98,0.45-1.47s0.76-0.93,1.37-1.31c0.67-0.42,1.34-0.76,2.02-1.01s1.42-0.38,2.18-0.38c0.84,0,1.65,0.12,2.44,0.35
			c0.79,0.23,1.42,0.62,1.91,1.17s0.73,1.29,0.73,2.22v9.25c0.15,0.15,0.37,0.29,0.65,0.4s0.66,0.16,1.15,0.16h1.16l0.14,0.06v0.2
			c-0.26,0.46-0.67,0.88-1.21,1.25c-0.54,0.36-1.2,0.55-1.98,0.55c-0.75,0-1.36-0.18-1.82-0.55c-0.46-0.36-0.79-0.87-0.99-1.51
			h-0.25c-0.58,0.58-1.27,1.07-2.1,1.46C675.46,155.24,674.59,155.44,673.66,155.44z M672.99,151.16c0,1.37,0.8,2.06,2.42,2.06
			c0.49,0,0.96-0.05,1.41-0.15c0.45-0.1,0.98-0.27,1.58-0.51v-4.91c-1.59,0.31-2.77,0.64-3.55,0.99c-0.78,0.35-1.28,0.73-1.51,1.15
			C673.11,150.19,672.99,150.65,672.99,151.16z"/>
		<path class="st0" d="M693.49,155.44c-2.15,0-3.85-0.65-5.11-1.96c-1.26-1.3-1.89-3.04-1.89-5.21c0-1.63,0.33-3.1,1.01-4.38
			s1.6-2.28,2.77-3c1.17-0.72,2.51-1.07,4.02-1.07c0.93,0,1.81,0.15,2.65,0.45s1.48,0.7,1.92,1.17c0.33,0.4,0.5,0.73,0.5,0.99
			c0,0.18-0.03,0.32-0.08,0.42s-0.16,0.23-0.32,0.38l-1.36,1.09h-0.23l-1.13-1.53c-0.33-0.46-0.73-0.83-1.19-1.11
			s-1.05-0.42-1.76-0.42c-1.17,0-2.09,0.49-2.75,1.46c-0.66,0.98-0.99,2.31-0.99,4.02c0,1.04,0.17,2.01,0.51,2.92
			s0.92,1.63,1.72,2.18c0.8,0.55,1.91,0.83,3.3,0.83c0.62,0,1.28-0.11,2-0.32c0.7-0.21,1.46-0.52,2.26-0.95h0.1v0.4
			c-0.51,1.02-1.28,1.88-2.32,2.57C696.08,155.09,694.87,155.44,693.49,155.44z"/>
		<path class="st0" d="M707.86,155.44c-1.07,0-1.96-0.29-2.7-0.87s-1.11-1.38-1.11-2.42v-10.48h-2.65v-0.26l2.89-1.26l2.59-3.65h0.3
			v3.65h4.42v1.53h-4.42v9.85c0,0.58,0.25,0.99,0.75,1.26c0.5,0.26,1.09,0.4,1.77,0.4c0.42,0,0.8-0.02,1.16-0.06
			c0.35-0.05,0.68-0.1,0.97-0.16h0.1v0.4c-0.26,0.51-0.75,0.98-1.44,1.43C709.76,155.21,708.9,155.44,707.86,155.44z"/>
		<path class="st0" d="M720.26,155.44c-1.31,0-2.37-0.33-3.21-0.99c-0.83-0.66-1.25-1.63-1.25-2.92v-9.82l-2.12-1.03v-0.53h5.24V150
			c0,0.93,0.28,1.63,0.85,2.12c0.56,0.49,1.3,0.73,2.2,0.73c0.55,0,1.16-0.09,1.82-0.28c0.67-0.19,1.19-0.47,1.59-0.85V141.7
			l-2.26-1.03v-0.53h5.41v13.47l2.29,0.97v0.53h-5.44v-2.09h-0.16c-0.82,0.82-1.62,1.43-2.39,1.82
			C722.06,155.24,721.21,155.44,720.26,155.44z"/>
		<path class="st0" d="M733.27,155.11v-0.53l2.12-1.07v-9.88l-2.02-1.69v-0.26l4.58-1.86h0.26l0.3,2.85h0.14
			c0.51-0.84,0.98-1.46,1.39-1.88c0.42-0.41,0.82-0.68,1.19-0.79c0.38-0.12,0.76-0.18,1.16-0.18c0.2,0,0.42,0.03,0.65,0.08
			c0.23,0.05,0.42,0.12,0.58,0.18c0.26,0.11,0.5,0.24,0.7,0.4c0.2,0.15,0.3,0.33,0.3,0.53s-0.05,0.4-0.14,0.6l-0.7,1.76h-0.23
			l-1.16-0.46c-0.26-0.09-0.52-0.15-0.76-0.18c-0.24-0.04-0.49-0.05-0.73-0.05c-0.95,0-1.73,0.45-2.36,1.36v9.49l2.42,1.07v0.53
			h-7.68v-0.02H733.27z"/>
		<path class="st0" d="M746.74,155.11v-0.53l2.12-1.07v-9.91l-2.02-1.69v-0.26l4.91-1.82h0.23v13.7l2.06,1.07v0.53L746.74,155.11
			L746.74,155.11z M750.32,135.97c-0.6,0-1.09-0.2-1.49-0.6c-0.4-0.4-0.6-0.89-0.6-1.49c0-0.62,0.2-1.12,0.6-1.51
			c0.4-0.39,0.89-0.58,1.49-0.58s1.09,0.19,1.49,0.58c0.4,0.39,0.6,0.89,0.6,1.51c0,0.6-0.2,1.09-0.6,1.49
			S750.92,135.97,750.32,135.97z"/>
		<path class="st0" d="M757.12,155.11v-0.53l2.12-1.07v-9.91l-2.02-1.66v-0.26l4.58-1.86h0.23l0.3,2.46h0.16
			c0.84-0.82,1.64-1.44,2.42-1.84c0.78-0.41,1.64-0.61,2.62-0.61c1.28,0,2.35,0.33,3.2,0.98c0.85,0.65,1.28,1.63,1.28,2.93v9.79
			l2.09,1.07v0.53h-7.43v-0.53l2.18-1.07v-8.25c0-0.95-0.29-1.66-0.87-2.14s-1.32-0.71-2.22-0.71c-0.55,0-1.16,0.09-1.82,0.26
			c-0.67,0.18-1.19,0.45-1.59,0.83v10.02l2.18,1.07v0.53L757.12,155.11L757.12,155.11z"/>
		<path class="st0" d="M783.78,150.33c-0.99,0-1.91-0.18-2.75-0.53c-0.4,0.18-0.68,0.4-0.85,0.66c-0.16,0.26-0.25,0.55-0.25,0.87
			c0,1.11,0.79,1.66,2.39,1.66h3.92c1.63,0,2.84,0.36,3.63,1.07s1.17,1.79,1.17,3.21c0,0.95-0.33,1.88-0.98,2.77
			c-0.65,0.89-1.58,1.63-2.77,2.18c-1.19,0.56-2.61,0.85-4.24,0.85c-2.1,0-3.61-0.37-4.54-1.11s-1.39-1.65-1.39-2.74
			c0-0.79,0.2-1.51,0.6-2.12l2.26-1.46v-0.16c-0.84-0.18-1.48-0.51-1.92-1.01s-0.67-1.11-0.67-1.84c0-0.87,0.3-1.59,0.89-2.18
			l1.79-0.97v-0.2c-0.7-0.46-1.26-1.07-1.68-1.79c-0.41-0.73-0.61-1.53-0.61-2.42c0-0.99,0.26-1.89,0.78-2.69
			c0.52-0.79,1.24-1.42,2.14-1.88c0.9-0.45,1.93-0.68,3.09-0.68c0.51,0,1.05,0.06,1.61,0.18c0.56,0.13,1.05,0.27,1.44,0.45l4.97-0.3
			v1.82l-3.15-0.2l-0.14,0.14c0.38,0.38,0.68,0.85,0.91,1.43c0.23,0.58,0.35,1.15,0.35,1.72c0,0.99-0.26,1.89-0.79,2.69
			c-0.53,0.8-1.25,1.43-2.14,1.89C785.96,150.1,784.94,150.33,783.78,150.33z M779.57,158.79c0,0.95,0.36,1.73,1.09,2.36
			c0.73,0.62,1.66,0.93,2.79,0.93c0.98,0,1.81-0.19,2.54-0.56c0.72-0.38,1.28-0.87,1.69-1.46c0.41-0.6,0.61-1.23,0.61-1.89
			c0-0.95-0.25-1.61-0.76-1.98c-0.51-0.36-1.41-0.55-2.69-0.55h-3.39c-0.11,0-0.23,0-0.33,0c-0.58,0.33-0.98,0.76-1.21,1.27
			C779.69,157.44,779.57,158.06,779.57,158.79z M784.09,148.94c0.84,0,1.5-0.37,1.98-1.11s0.71-1.63,0.71-2.67
			c0-1.24-0.31-2.22-0.93-2.93c-0.62-0.71-1.37-1.07-2.26-1.07c-0.9,0-1.6,0.37-2.08,1.11s-0.71,1.64-0.71,2.7
			c0,1.17,0.31,2.13,0.91,2.87C782.32,148.57,783.11,148.94,784.09,148.94z"/>
	</g>
	<g>
		<path class="st0" d="M871.92,155.11v-0.53l3.35-1.33v-18.21h-5.24l-2.36,5.01h-0.53v-6.83h19.7v6.83h-0.53l-2.32-5.01h-5.27v18.21
			l3.39,1.33v0.53C882.1,155.11,871.92,155.11,871.92,155.11z"/>
		<path class="st0" d="M889.83,155.11v-0.53l2.12-1.07v-9.88l-2.02-1.69v-0.26l4.58-1.86h0.26l0.3,2.85h0.14
			c0.51-0.84,0.98-1.46,1.39-1.88c0.42-0.41,0.82-0.68,1.19-0.79c0.38-0.12,0.76-0.18,1.16-0.18c0.2,0,0.42,0.03,0.65,0.08
			c0.23,0.05,0.42,0.12,0.58,0.18c0.26,0.11,0.5,0.24,0.7,0.4c0.2,0.15,0.3,0.33,0.3,0.53s-0.05,0.4-0.14,0.6l-0.7,1.76h-0.23
			l-1.16-0.46c-0.26-0.09-0.52-0.15-0.76-0.18c-0.24-0.04-0.49-0.05-0.73-0.05c-0.95,0-1.73,0.45-2.36,1.36v9.49l2.42,1.07v0.53
			h-7.68v-0.02H889.83z"/>
		<path class="st0" d="M906.81,155.44c-1.06,0-1.94-0.32-2.64-0.95s-1.05-1.5-1.05-2.6c0-1.08,0.39-2.01,1.17-2.8
			c0.79-0.79,2.15-1.41,4.1-1.88l3.15-0.73v-2.32c0-0.79-0.29-1.46-0.88-1.99s-1.26-0.79-2.04-0.79c-0.82,0-1.39,0.21-1.71,0.63
			c-0.33,0.42-0.48,0.99-0.48,1.72v1.07l-0.16,0.16h-1.82c-0.33,0-0.56-0.06-0.68-0.18s-0.18-0.38-0.18-0.78
			c0-0.49,0.15-0.98,0.45-1.47c0.3-0.5,0.76-0.93,1.37-1.31c0.67-0.42,1.34-0.76,2.02-1.01c0.69-0.25,1.42-0.38,2.18-0.38
			c0.84,0,1.65,0.12,2.44,0.35c0.79,0.23,1.42,0.62,1.91,1.17s0.73,1.29,0.73,2.22v9.25c0.15,0.15,0.37,0.29,0.65,0.4
			s0.66,0.16,1.15,0.16h1.15l0.14,0.06v0.2c-0.26,0.46-0.67,0.88-1.21,1.25c-0.54,0.36-1.2,0.55-1.98,0.55
			c-0.75,0-1.36-0.18-1.82-0.55c-0.46-0.36-0.79-0.87-0.99-1.51h-0.23c-0.58,0.58-1.27,1.07-2.1,1.46
			C908.62,155.24,907.74,155.44,906.81,155.44z M906.15,151.16c0,1.37,0.8,2.06,2.42,2.06c0.49,0,0.96-0.05,1.41-0.15
			s0.98-0.27,1.58-0.51v-4.91c-1.59,0.31-2.77,0.64-3.55,0.99c-0.78,0.35-1.28,0.73-1.51,1.15
			C906.26,150.19,906.15,150.65,906.15,151.16z"/>
		<path class="st0" d="M919.55,155.11v-0.53l2.12-1.07v-9.91l-2.02-1.66v-0.26l4.58-1.86h0.23l0.3,2.46h0.16
			c0.84-0.82,1.64-1.44,2.42-1.84c0.78-0.41,1.64-0.61,2.62-0.61c1.28,0,2.35,0.33,3.2,0.98c0.85,0.65,1.28,1.63,1.28,2.93v9.79
			l2.09,1.07v0.53h-7.43v-0.53l2.18-1.07v-8.25c0-0.95-0.29-1.66-0.87-2.14s-1.32-0.71-2.22-0.71c-0.55,0-1.16,0.09-1.82,0.26
			c-0.67,0.18-1.19,0.45-1.59,0.83v10.02l2.18,1.07v0.53L919.55,155.11L919.55,155.11z"/>
		<path class="st0" d="M944.7,155.44c-1.07,0-1.98-0.09-2.74-0.28s-1.53-0.48-2.3-0.88v-3.71h0.5l1.07,1.79
			c0.73,1.22,1.86,1.82,3.39,1.82c0.88,0,1.56-0.2,2.04-0.6c0.48-0.4,0.71-0.95,0.71-1.66c0-0.58-0.15-1.04-0.45-1.39
			s-0.73-0.66-1.29-0.93c-0.56-0.26-1.25-0.59-2.04-0.97c-1.15-0.51-2.03-1.07-2.64-1.69c-0.6-0.62-0.91-1.47-0.91-2.56
			c0-0.87,0.23-1.63,0.71-2.32c0.48-0.69,1.09-1.24,1.84-1.64c0.75-0.41,1.54-0.61,2.39-0.61c0.79,0,1.54,0.09,2.26,0.28
			c0.7,0.19,1.41,0.46,2.09,0.81v3.68h-0.46l-1.09-1.72c-0.73-1.15-1.63-1.72-2.69-1.72c-0.73,0-1.32,0.18-1.76,0.55
			c-0.44,0.36-0.67,0.87-0.67,1.51c0,0.7,0.26,1.25,0.78,1.64s1.34,0.82,2.44,1.31c0.64,0.29,1.27,0.6,1.89,0.91
			c0.62,0.33,1.13,0.77,1.54,1.33s0.61,1.36,0.61,2.4c0,1.02-0.27,1.87-0.81,2.56s-1.21,1.21-2,1.56
			C946.29,155.26,945.49,155.44,944.7,155.44z"/>
		<path class="st0" d="M953.48,162.74v-0.53l2.12-1.07v-17.51l-2.02-1.69v-0.26l4.58-1.86h0.23l0.26,2.02h0.23
			c0.82-0.7,1.62-1.22,2.39-1.54c0.78-0.32,1.62-0.48,2.52-0.48c1.08,0,2.06,0.29,2.92,0.87c0.87,0.58,1.54,1.39,2.06,2.44
			c0.51,1.05,0.76,2.32,0.76,3.8c0,1.79-0.34,3.32-1.03,4.6c-0.69,1.27-1.61,2.25-2.75,2.92c-1.15,0.68-2.42,1.01-3.82,1.01
			c-1.19,0-2.27-0.11-3.21-0.33v6.04l2.42,1.07v0.53h-7.66L953.48,162.74L953.48,162.74z M961.78,142.2c-1.07,0-2.08,0.3-3.05,0.89
			v9.42c0.58,0.49,1.17,0.82,1.81,1.01c0.63,0.19,1.34,0.28,2.1,0.28c0.67,0,1.28-0.19,1.86-0.56c0.58-0.38,1.03-0.99,1.37-1.84
			s0.51-2,0.51-3.43c0-1.35-0.21-2.45-0.63-3.29s-0.98-1.46-1.68-1.88C963.39,142.41,962.62,142.2,961.78,142.2z"/>
		<path class="st0" d="M979.99,155.44c-1.48,0-2.78-0.35-3.9-1.05s-1.99-1.63-2.62-2.82c-0.63-1.18-0.95-2.5-0.95-3.96
			s0.32-2.78,0.95-3.96s1.51-2.12,2.62-2.8c1.12-0.69,2.42-1.03,3.9-1.03s2.77,0.34,3.88,1.03c1.1,0.69,1.98,1.62,2.6,2.8
			c0.63,1.18,0.95,2.5,0.95,3.96s-0.32,2.78-0.95,3.96c-0.63,1.18-1.5,2.12-2.6,2.82S981.47,155.44,979.99,155.44z M980.42,153.98
			c0.84,0,1.53-0.28,2.06-0.83c0.53-0.55,0.92-1.26,1.16-2.12s0.36-1.78,0.36-2.75c0-1.17-0.15-2.29-0.45-3.37
			c-0.3-1.07-0.77-1.95-1.41-2.64c-0.64-0.69-1.48-1.03-2.52-1.03c-0.84,0-1.53,0.27-2.09,0.81s-0.96,1.25-1.21,2.1
			c-0.25,0.87-0.38,1.78-0.38,2.75c0,1.17,0.15,2.3,0.46,3.39s0.79,1.97,1.46,2.65C978.53,153.63,979.38,153.98,980.42,153.98z"/>
		<path class="st0" d="M990.54,155.11v-0.53l2.12-1.07v-9.88l-2.02-1.69v-0.26l4.58-1.86h0.26l0.3,2.85h0.14
			c0.51-0.84,0.98-1.46,1.39-1.88c0.42-0.41,0.82-0.68,1.19-0.79c0.38-0.12,0.76-0.18,1.16-0.18c0.2,0,0.42,0.03,0.65,0.08
			c0.23,0.05,0.42,0.12,0.58,0.18c0.26,0.11,0.5,0.24,0.7,0.4c0.2,0.15,0.3,0.33,0.3,0.53s-0.05,0.4-0.14,0.6l-0.7,1.76h-0.23
			l-1.16-0.46c-0.26-0.09-0.52-0.15-0.76-0.18c-0.24-0.04-0.49-0.05-0.73-0.05c-0.95,0-1.73,0.45-2.36,1.36v9.49l2.42,1.07v0.53
			h-7.68v-0.02H990.54z"/>
		<path class="st0" d="M1009.38,155.44c-1.07,0-1.96-0.29-2.7-0.87s-1.11-1.38-1.11-2.42v-10.48h-2.65v-0.26l2.89-1.26l2.59-3.65
			h0.3v3.65h4.41v1.53h-4.42v9.85c0,0.58,0.25,0.99,0.75,1.26c0.5,0.26,1.09,0.4,1.77,0.4c0.42,0,0.8-0.02,1.16-0.06
			c0.35-0.05,0.68-0.1,0.97-0.16h0.1v0.4c-0.26,0.51-0.75,0.98-1.44,1.43C1011.28,155.21,1010.42,155.44,1009.38,155.44z"/>
		<path class="st0" d="M1019.53,155.44c-1.06,0-1.94-0.32-2.64-0.95c-0.7-0.63-1.05-1.5-1.05-2.6c0-1.08,0.39-2.01,1.17-2.8
			c0.79-0.79,2.15-1.41,4.1-1.88l3.15-0.73v-2.32c0-0.79-0.29-1.46-0.88-1.99s-1.26-0.79-2.04-0.79c-0.82,0-1.39,0.21-1.71,0.63
			c-0.33,0.42-0.48,0.99-0.48,1.72v1.07l-0.16,0.16h-1.82c-0.33,0-0.56-0.06-0.68-0.18s-0.18-0.38-0.18-0.78
			c0-0.49,0.15-0.98,0.45-1.47c0.3-0.5,0.76-0.93,1.37-1.31c0.67-0.42,1.34-0.76,2.02-1.01c0.69-0.25,1.42-0.38,2.18-0.38
			c0.84,0,1.65,0.12,2.44,0.35c0.79,0.23,1.42,0.62,1.91,1.17s0.73,1.29,0.73,2.22v9.25c0.15,0.15,0.37,0.29,0.65,0.4
			s0.66,0.16,1.15,0.16h1.16l0.14,0.06v0.2c-0.26,0.46-0.67,0.88-1.21,1.25c-0.54,0.36-1.2,0.55-1.98,0.55
			c-0.75,0-1.36-0.18-1.82-0.55c-0.46-0.36-0.79-0.87-0.99-1.51h-0.23c-0.58,0.58-1.27,1.07-2.1,1.46
			C1021.33,155.24,1020.46,155.44,1019.53,155.44z M1018.87,151.16c0,1.37,0.8,2.06,2.42,2.06c0.49,0,0.96-0.05,1.41-0.15
			c0.45-0.1,0.98-0.27,1.58-0.51v-4.91c-1.59,0.31-2.77,0.64-3.55,0.99c-0.78,0.35-1.28,0.73-1.51,1.15
			C1018.99,150.19,1018.87,150.65,1018.87,151.16z"/>
		<path class="st0" d="M1037.81,155.44c-1.07,0-1.96-0.29-2.7-0.87s-1.11-1.38-1.11-2.42v-10.48h-2.65v-0.26l2.89-1.26l2.59-3.65
			h0.3v3.65h4.42v1.53h-4.42v9.85c0,0.58,0.25,0.99,0.75,1.26c0.5,0.26,1.09,0.4,1.77,0.4c0.42,0,0.8-0.02,1.16-0.06
			c0.35-0.05,0.68-0.1,0.97-0.16h0.1v0.4c-0.26,0.51-0.75,0.98-1.44,1.43C1039.72,155.21,1038.85,155.44,1037.81,155.44z"/>
		<path class="st0" d="M1044.44,155.11v-0.53l2.12-1.07v-9.91l-2.02-1.69v-0.26l4.91-1.82h0.23v13.7l2.06,1.07v0.53L1044.44,155.11
			L1044.44,155.11z M1048.02,135.97c-0.6,0-1.09-0.2-1.49-0.6c-0.4-0.4-0.6-0.89-0.6-1.49c0-0.62,0.2-1.12,0.6-1.51
			s0.89-0.58,1.49-0.58s1.09,0.19,1.49,0.58s0.6,0.89,0.6,1.51c0,0.6-0.2,1.09-0.6,1.49S1048.62,135.97,1048.02,135.97z"/>
		<path class="st0" d="M1062.35,155.44c-1.48,0-2.78-0.35-3.9-1.05s-1.99-1.63-2.62-2.82c-0.63-1.18-0.95-2.5-0.95-3.96
			s0.32-2.78,0.95-3.96c0.63-1.18,1.51-2.12,2.62-2.8c1.12-0.69,2.42-1.03,3.9-1.03s2.77,0.34,3.88,1.03c1.1,0.69,1.98,1.62,2.6,2.8
			c0.63,1.18,0.95,2.5,0.95,3.96s-0.32,2.78-0.95,3.96c-0.63,1.18-1.5,2.12-2.6,2.82C1065.13,155.09,1063.83,155.44,1062.35,155.44z
			 M1062.78,153.98c0.84,0,1.53-0.28,2.06-0.83s0.92-1.26,1.16-2.12s0.36-1.78,0.36-2.75c0-1.17-0.15-2.29-0.45-3.37
			c-0.3-1.07-0.77-1.95-1.41-2.64s-1.48-1.03-2.52-1.03c-0.84,0-1.53,0.27-2.09,0.81s-0.96,1.25-1.21,2.1
			c-0.25,0.87-0.38,1.78-0.38,2.75c0,1.17,0.15,2.3,0.46,3.39c0.31,1.08,0.79,1.97,1.46,2.65
			C1060.9,153.63,1061.74,153.98,1062.78,153.98z"/>
		<path class="st0" d="M1072.8,155.11v-0.53l2.12-1.07v-9.91l-2.02-1.66v-0.26l4.58-1.86h0.23l0.3,2.46h0.16
			c0.84-0.82,1.64-1.44,2.42-1.84c0.78-0.41,1.64-0.61,2.62-0.61c1.28,0,2.35,0.33,3.2,0.98s1.28,1.63,1.28,2.93v9.79l2.09,1.07
			v0.53h-7.43v-0.53l2.18-1.07v-8.25c0-0.95-0.29-1.66-0.87-2.14s-1.32-0.71-2.22-0.71c-0.55,0-1.16,0.09-1.82,0.26
			c-0.67,0.18-1.19,0.45-1.59,0.83v10.02l2.18,1.07v0.53L1072.8,155.11L1072.8,155.11z"/>
	</g>
	<g>
		<g>
			<path class="st0" d="M1165.31,155.11v-0.53l2.69-1.33v-18.17l-2.69-1.33v-0.53h9.22c2.32,0,4.15,0.48,5.49,1.44s2,2.28,2,3.96
				c0,1.24-0.42,2.33-1.26,3.29c-0.84,0.95-1.95,1.68-3.31,2.18l6.27,9.25l2.22,1.23v0.53h-5.34l-6.37-10.08h-2.75v8.2l2.49,1.36
				v0.53L1165.31,155.11L1165.31,155.11z M1173.44,135.04h-1.96v8.23h2.16c1.37,0,2.5-0.39,3.4-1.17c0.89-0.79,1.35-1.79,1.35-3
				c0-1.26-0.43-2.25-1.31-2.97C1176.2,135.4,1174.98,135.04,1173.44,135.04z"/>
			<path class="st0" d="M1194.37,155.44c-2.17,0-3.88-0.65-5.14-1.96c-1.26-1.31-1.89-3.04-1.89-5.21c0-1.63,0.33-3.1,1.01-4.38
				s1.57-2.28,2.69-3.01s2.33-1.07,3.63-1.07c1.77,0,3.15,0.6,4.14,1.81c0.99,1.2,1.51,2.93,1.53,5.19l-0.16,0.16h-9.79
				c0.02,1.02,0.22,1.96,0.58,2.82c0.36,0.87,0.95,1.56,1.76,2.09c0.8,0.53,1.9,0.79,3.27,0.79c1.26,0,2.69-0.42,4.28-1.26h0.1v0.4
				c-0.53,1.02-1.32,1.88-2.36,2.57C1196.98,155.09,1195.77,155.44,1194.37,155.44z M1194.07,141.27c-0.97,0-1.78,0.36-2.4,1.09
				s-1.04,1.76-1.21,3.09h7.07c-0.23-1.51-0.62-2.57-1.19-3.21C1195.75,141.6,1195,141.27,1194.07,141.27z"/>
			<path class="st0" d="M1208.93,155.44c-1.07,0-1.96-0.29-2.7-0.87s-1.11-1.38-1.11-2.42v-10.48h-2.65v-0.26l2.89-1.26l2.59-3.65
				h0.3v3.65h4.42v1.53h-4.42v9.85c0,0.58,0.25,0.99,0.75,1.26c0.5,0.26,1.09,0.4,1.77,0.4c0.42,0,0.8-0.02,1.16-0.06
				c0.36-0.05,0.68-0.1,0.97-0.16h0.1v0.4c-0.26,0.51-0.75,0.98-1.44,1.43C1210.84,155.21,1209.97,155.44,1208.93,155.44z"/>
			<path class="st0" d="M1219.08,155.44c-1.06,0-1.94-0.32-2.64-0.95s-1.05-1.5-1.05-2.6c0-1.08,0.39-2.02,1.17-2.8
				c0.79-0.79,2.15-1.41,4.1-1.88l3.15-0.73v-2.32c0-0.79-0.29-1.46-0.88-2c-0.59-0.53-1.26-0.79-2.04-0.79
				c-0.82,0-1.39,0.21-1.71,0.63c-0.33,0.42-0.48,0.99-0.48,1.72v1.07l-0.16,0.16h-1.82c-0.33,0-0.56-0.06-0.68-0.18
				s-0.18-0.38-0.18-0.78c0-0.49,0.15-0.98,0.45-1.48c0.3-0.5,0.76-0.93,1.37-1.31c0.67-0.42,1.34-0.76,2.02-1.01
				c0.69-0.25,1.42-0.38,2.19-0.38c0.84,0,1.65,0.12,2.44,0.35s1.42,0.62,1.91,1.17s0.73,1.29,0.73,2.22v9.25
				c0.15,0.15,0.37,0.29,0.65,0.4s0.66,0.16,1.15,0.16h1.16l0.14,0.06v0.2c-0.26,0.46-0.67,0.88-1.21,1.25
				c-0.54,0.36-1.2,0.55-1.98,0.55c-0.75,0-1.36-0.18-1.82-0.55c-0.46-0.36-0.79-0.87-0.99-1.51h-0.23
				c-0.58,0.58-1.27,1.07-2.1,1.46C1220.89,155.24,1220.01,155.44,1219.08,155.44z M1218.42,151.16c0,1.37,0.8,2.06,2.42,2.06
				c0.49,0,0.96-0.05,1.41-0.15s0.98-0.27,1.58-0.51v-4.91c-1.59,0.31-2.77,0.64-3.55,0.99s-1.28,0.73-1.51,1.15
				C1218.55,150.19,1218.42,150.65,1218.42,151.16z"/>
			<path class="st0" d="M1231.99,155.11v-0.53l2.12-1.07v-9.91l-2.02-1.69v-0.26l4.91-1.82h0.23v13.7l2.06,1.07v0.53L1231.99,155.11
				L1231.99,155.11z M1235.56,135.97c-0.6,0-1.09-0.2-1.49-0.6c-0.4-0.4-0.6-0.89-0.6-1.49c0-0.62,0.2-1.12,0.6-1.51
				s0.89-0.58,1.49-0.58s1.09,0.19,1.49,0.58s0.6,0.89,0.6,1.51c0,0.6-0.2,1.09-0.6,1.49
				C1236.67,135.77,1236.17,135.97,1235.56,135.97z"/>
			<path class="st0" d="M1242.27,155.11v-0.53l2.09-1.07v-19.5l-2-1.69v-0.26l4.88-1.82h0.26v23.28l2.06,1.07v0.53L1242.27,155.11
				L1242.27,155.11z"/>
		</g>
	</g>
	<g>
		<path class="st2" d="M1337.34,155.44c-1.92,0-3.61-0.32-5.07-0.95s-2.6-1.66-3.41-3.09s-1.23-3.33-1.23-5.72v-10.57l-2.85-1.36
			v-0.53h10.72v0.53l-2.85,1.36v10.62c0,1.83,0.28,3.28,0.85,4.32c0.56,1.05,1.33,1.8,2.29,2.24s2.03,0.67,3.21,0.67
			c0.98,0,1.88-0.2,2.72-0.6s1.52-1.05,2.02-1.94c0.51-0.89,0.76-2.08,0.76-3.53v-11.85l-3.11-1.29v-0.53h8.3v0.53l-2.85,1.33v10.62
			c0,2.39-0.4,4.3-1.19,5.72c-0.79,1.43-1.91,2.46-3.31,3.09C1340.86,155.12,1339.21,155.44,1337.34,155.44z"/>
		<path class="st2" d="M1356.7,155.44c-1.08,0-2.03-0.11-2.83-0.32c-0.8-0.21-1.6-0.51-2.37-0.88v-3.85h0.5l1.16,1.72
			c0.82,1.24,1.96,1.86,3.42,1.86c1.72,0,2.59-0.63,2.59-1.89c0-0.46-0.12-0.84-0.36-1.13s-0.63-0.56-1.17-0.83
			c-0.54-0.26-1.29-0.6-2.24-0.99c-1.24-0.51-2.16-1.1-2.75-1.79c-0.6-0.69-0.89-1.53-0.89-2.56c0-0.95,0.25-1.81,0.75-2.59
			s1.17-1.39,2.04-1.86s1.83-0.7,2.92-0.7c0.75,0,1.49,0.08,2.2,0.23s1.42,0.41,2.1,0.77v3.95h-0.5l-1.03-1.56
			c-0.42-0.64-0.85-1.12-1.29-1.43c-0.44-0.31-0.98-0.46-1.59-0.46c-0.67,0-1.2,0.16-1.61,0.5c-0.41,0.33-0.61,0.79-0.61,1.39
			c0,0.4,0.09,0.73,0.28,1.01c0.19,0.28,0.52,0.55,1.01,0.81s1.18,0.58,2.09,0.93c0.61,0.24,1.24,0.52,1.84,0.85
			c0.6,0.32,1.12,0.78,1.53,1.36c0.41,0.59,0.61,1.4,0.61,2.44c0,1.04-0.28,1.93-0.83,2.69c-0.55,0.75-1.26,1.33-2.14,1.72
			C1358.65,155.26,1357.7,155.44,1356.7,155.44z"/>
		<path class="st2" d="M1372.23,155.44c-2.28,0-4.07-0.66-5.39-1.98s-1.98-3.06-1.98-5.23c0-1.68,0.36-3.17,1.09-4.46
			c0.73-1.29,1.72-2.3,2.95-3.03c1.24-0.73,2.62-1.09,4.14-1.09c1.79,0,3.19,0.6,4.18,1.79c0.99,1.19,1.51,2.89,1.53,5.07
			l-0.14,0.16h-9.29v0.16c0,0.93,0.18,1.78,0.53,2.54c0.35,0.77,0.91,1.36,1.67,1.81c0.77,0.44,1.75,0.66,2.97,0.66
			c0.64,0,1.31-0.08,2-0.23c0.7-0.15,1.42-0.42,2.18-0.79h0.1v0.53c-0.55,1.17-1.4,2.15-2.54,2.92
			C1375.12,155.05,1373.77,155.44,1372.23,155.44z M1372.29,141.14c-0.78,0-1.41,0.35-1.91,1.07c-0.5,0.7-0.81,1.71-0.95,2.99h5.61
			c-0.15-1.53-0.47-2.58-0.95-3.17C1373.63,141.44,1373.03,141.14,1372.29,141.14z"/>
	</g>
	<g>
		<path class="st1" d="M1454.45,155.11v-0.53l2.69-1.33v-18.17l-2.69-1.33v-0.53h9.19v0.53l-3.02,1.33v18.21h7.86l2.36-5.71h0.53
			v7.53H1454.45z"/>
		<path class="st1" d="M1478.71,155.44c-1.06,0-1.94-0.32-2.64-0.95c-0.7-0.63-1.05-1.5-1.05-2.6c0-1.08,0.39-2.02,1.17-2.8
			c0.79-0.79,2.15-1.41,4.1-1.88l3.15-0.73v-2.32c0-0.79-0.29-1.46-0.88-2c-0.59-0.53-1.26-0.79-2.04-0.79
			c-0.82,0-1.39,0.21-1.71,0.63s-0.48,0.99-0.48,1.72v1.07l-0.16,0.16h-1.82c-0.33,0-0.56-0.06-0.68-0.18s-0.18-0.38-0.18-0.78
			c0-0.49,0.15-0.98,0.45-1.48c0.3-0.5,0.76-0.93,1.37-1.31c0.67-0.42,1.34-0.76,2.02-1.01c0.69-0.25,1.42-0.38,2.18-0.38
			c0.84,0,1.65,0.12,2.44,0.35c0.79,0.23,1.42,0.62,1.91,1.17s0.73,1.29,0.73,2.22v9.25c0.15,0.15,0.37,0.29,0.65,0.4
			s0.66,0.16,1.15,0.16h1.16l0.14,0.06v0.2c-0.26,0.46-0.67,0.88-1.21,1.25c-0.54,0.36-1.2,0.55-1.98,0.55
			c-0.75,0-1.36-0.18-1.82-0.55c-0.46-0.36-0.79-0.87-0.99-1.51h-0.23c-0.58,0.58-1.27,1.07-2.1,1.46
			C1480.51,155.24,1479.64,155.44,1478.71,155.44z M1478.04,151.16c0,1.37,0.8,2.06,2.42,2.06c0.49,0,0.96-0.05,1.41-0.15
			s0.97-0.27,1.58-0.51v-4.91c-1.59,0.31-2.77,0.64-3.55,0.99s-1.28,0.73-1.51,1.15C1478.16,150.19,1478.04,150.65,1478.04,151.16z"
			/>
		<path class="st1" d="M1491.45,155.11v-0.53l2.12-1.07v-9.91l-2.02-1.66v-0.26l4.58-1.86h0.23l0.3,2.46h0.16
			c0.84-0.82,1.64-1.43,2.42-1.84s1.64-0.61,2.62-0.61c1.28,0,2.35,0.33,3.2,0.98s1.28,1.63,1.28,2.93v9.79l2.09,1.07v0.53H1501
			v-0.53l2.18-1.07v-8.25c0-0.95-0.29-1.66-0.87-2.14s-1.32-0.71-2.22-0.71c-0.55,0-1.16,0.09-1.82,0.26
			c-0.67,0.18-1.19,0.45-1.59,0.83v10.02l2.18,1.07v0.53L1491.45,155.11L1491.45,155.11z"/>
		<path class="st1" d="M1516.65,155.44c-1.08,0-2.06-0.28-2.92-0.83c-0.87-0.55-1.54-1.34-2.06-2.34c-0.51-1-0.76-2.2-0.76-3.6
			c0-1.88,0.36-3.48,1.07-4.79c0.71-1.32,1.68-2.32,2.89-3.02s2.54-1.05,4-1.05c0.6,0,1.13,0.03,1.59,0.06
			c0.46,0.05,0.88,0.13,1.26,0.23V134l-2.18-1.69v-0.26l5.07-1.82h0.23v23.38l2.36,0.97v0.53h-5.14l-0.3-1.69h-0.2
			c-0.84,0.7-1.65,1.22-2.42,1.54C1518.37,155.28,1517.54,155.44,1516.65,155.44z M1514.07,147.85c0,1.81,0.45,3.13,1.36,3.96
			c0.9,0.83,1.99,1.25,3.25,1.25c1.07,0,2.08-0.31,3.05-0.93v-9.36c-0.49-0.42-0.97-0.75-1.44-0.98c-0.48-0.23-1.02-0.35-1.64-0.35
			c-0.84,0-1.61,0.21-2.28,0.61c-0.69,0.41-1.24,1.08-1.66,2.02C1514.28,145.02,1514.07,146.28,1514.07,147.85z"/>
		<path class="st1" d="M1529.95,155.11v-0.53l2.12-1.07v-11.84h-2.59v-1.53h2.59v-1.26c0-0.87,0.26-1.79,0.78-2.79
			c0.52-0.99,1.24-1.94,2.16-2.84c0.92-0.89,1.98-1.63,3.17-2.18c1.19-0.56,2.46-0.85,3.82-0.85c0.51,0,0.95,0.04,1.33,0.12
			s0.69,0.16,0.93,0.25c0.82,0.24,1.23,0.56,1.23,0.97c0,0.23-0.05,0.44-0.16,0.67l-0.93,1.76h-0.33l-0.89-0.4
			c-0.62-0.29-1.18-0.51-1.69-0.66c-0.51-0.15-1.14-0.23-1.89-0.23c-1.62,0-2.74,0.48-3.4,1.44s-0.97,2.23-0.97,3.8v2.22h11.55
			v13.37l2.06,1.07v0.53h-7.3v-0.53l2.12-1.07v-11.86h-8.42v11.91l2.42,0.99v0.53L1529.95,155.11L1529.95,155.11z"/>
		<path class="st1" d="M1551.75,155.11v-0.53l2.09-1.07v-19.5l-2-1.69v-0.26l4.88-1.82h0.26v23.28l2.06,1.07v0.53L1551.75,155.11
			L1551.75,155.11z"/>
		<path class="st1" d="M1561.73,155.11v-0.53l2.09-1.07v-19.5l-2-1.69v-0.26l4.88-1.82h0.26v23.28l2.06,1.07v0.53L1561.73,155.11
			L1561.73,155.11z"/>
	</g>
	<g>
		<path class="st0" d="M337.67,155.11v-0.53l2.69-1.33v-18.17l-2.69-1.33v-0.53h9.29c2.61,0,4.7,0.48,6.28,1.43s2.37,2.46,2.37,4.51
			c0,1.22-0.42,2.29-1.25,3.23s-1.95,1.68-3.37,2.22s-3.03,0.81-4.84,0.81h-2.32v7.83l3.05,1.33v0.53L337.67,155.11L337.67,155.11z
			 M343.84,135.04v8.62h2.52c1.74,0,3.11-0.4,4.12-1.19c0.99-0.79,1.49-1.81,1.49-3.05c0-1.54-0.51-2.66-1.51-3.35
			c-1.01-0.69-2.45-1.03-4.32-1.03C346.13,135.04,343.84,135.04,343.84,135.04z"/>
		<path class="st0" d="M358.77,155.11v-0.53l2.12-1.07v-9.88l-2.02-1.69v-0.26l4.58-1.86h0.26l0.3,2.85h0.14
			c0.51-0.84,0.98-1.46,1.39-1.88c0.42-0.41,0.82-0.68,1.19-0.79c0.38-0.12,0.76-0.18,1.16-0.18c0.2,0,0.42,0.03,0.65,0.08
			c0.23,0.05,0.42,0.12,0.58,0.18c0.26,0.11,0.5,0.24,0.7,0.4s0.3,0.33,0.3,0.53s-0.05,0.4-0.14,0.6l-0.7,1.76h-0.23l-1.16-0.46
			c-0.26-0.09-0.52-0.15-0.76-0.18c-0.24-0.04-0.49-0.05-0.73-0.05c-0.95,0-1.73,0.45-2.36,1.36v9.49l2.42,1.07v0.53h-7.68
			L358.77,155.11L358.77,155.11z"/>
		<path class="st0" d="M379.6,155.44c-1.48,0-2.78-0.35-3.9-1.05s-1.99-1.63-2.62-2.82c-0.63-1.18-0.95-2.5-0.95-3.96
			s0.32-2.78,0.95-3.96c0.63-1.18,1.51-2.12,2.62-2.8c1.12-0.69,2.42-1.03,3.9-1.03s2.77,0.34,3.88,1.03c1.1,0.69,1.98,1.62,2.6,2.8
			c0.63,1.18,0.95,2.5,0.95,3.96s-0.32,2.78-0.95,3.96c-0.63,1.18-1.5,2.12-2.6,2.82C382.38,155.09,381.08,155.44,379.6,155.44z
			 M380.03,153.98c0.84,0,1.53-0.28,2.06-0.83s0.92-1.26,1.16-2.12s0.36-1.78,0.36-2.75c0-1.17-0.15-2.29-0.45-3.37
			c-0.3-1.07-0.77-1.95-1.41-2.64s-1.48-1.03-2.52-1.03c-0.84,0-1.53,0.27-2.09,0.81c-0.55,0.54-0.96,1.25-1.21,2.1
			c-0.25,0.87-0.38,1.78-0.38,2.75c0,1.17,0.15,2.3,0.46,3.39c0.31,1.08,0.79,1.97,1.46,2.65
			C378.14,153.63,378.99,153.98,380.03,153.98z"/>
		<path class="st0" d="M397.15,155.44c-2.15,0-3.85-0.65-5.11-1.96c-1.26-1.3-1.89-3.04-1.89-5.21c0-1.63,0.33-3.1,1.01-4.38
			c0.68-1.28,1.6-2.28,2.77-3c1.17-0.72,2.51-1.07,4.02-1.07c0.93,0,1.81,0.15,2.65,0.45s1.48,0.7,1.92,1.17
			c0.33,0.4,0.5,0.73,0.5,0.99c0,0.18-0.03,0.32-0.08,0.42s-0.16,0.23-0.32,0.38l-1.36,1.09h-0.23l-1.13-1.53
			c-0.33-0.46-0.73-0.83-1.19-1.11s-1.05-0.42-1.76-0.42c-1.17,0-2.09,0.49-2.75,1.46c-0.66,0.98-0.99,2.31-0.99,4.02
			c0,1.04,0.17,2.01,0.51,2.92c0.34,0.9,0.92,1.63,1.72,2.18c0.8,0.55,1.91,0.83,3.3,0.83c0.62,0,1.28-0.11,2-0.32
			c0.7-0.21,1.46-0.52,2.26-0.95h0.1v0.4c-0.51,1.02-1.28,1.88-2.32,2.57S398.52,155.44,397.15,155.44z"/>
		<path class="st0" d="M413.1,155.44c-2.17,0-3.88-0.65-5.14-1.96c-1.26-1.3-1.89-3.04-1.89-5.21c0-1.63,0.33-3.1,1.01-4.38
			c0.68-1.28,1.57-2.28,2.69-3s2.33-1.07,3.63-1.07c1.77,0,3.15,0.6,4.14,1.81c0.99,1.21,1.51,2.93,1.53,5.19l-0.16,0.16h-9.79
			c0.02,1.02,0.22,1.96,0.58,2.82s0.95,1.56,1.76,2.09c0.8,0.53,1.9,0.79,3.27,0.79c1.26,0,2.69-0.42,4.28-1.26h0.1v0.4
			c-0.53,1.02-1.32,1.88-2.36,2.57C415.71,155.09,414.49,155.44,413.1,155.44z M412.8,141.27c-0.98,0-1.78,0.36-2.4,1.09
			c-0.63,0.73-1.04,1.76-1.21,3.09h7.07c-0.23-1.51-0.62-2.57-1.19-3.21C414.48,141.6,413.73,141.27,412.8,141.27z"/>
		<path class="st0" d="M427.7,155.44c-1.07,0-1.98-0.09-2.74-0.28c-0.76-0.19-1.53-0.48-2.3-0.88v-3.71h0.5l1.07,1.79
			c0.73,1.22,1.86,1.82,3.39,1.82c0.88,0,1.56-0.2,2.04-0.6s0.71-0.95,0.71-1.66c0-0.58-0.15-1.04-0.45-1.39s-0.73-0.66-1.29-0.93
			c-0.56-0.26-1.25-0.59-2.04-0.97c-1.15-0.51-2.03-1.07-2.64-1.69c-0.6-0.62-0.91-1.47-0.91-2.56c0-0.87,0.23-1.63,0.71-2.32
			c0.48-0.69,1.09-1.24,1.84-1.64c0.75-0.41,1.54-0.61,2.39-0.61c0.79,0,1.54,0.09,2.26,0.28c0.7,0.19,1.41,0.46,2.09,0.81v3.68
			h-0.46l-1.09-1.72c-0.73-1.15-1.63-1.72-2.69-1.72c-0.73,0-1.32,0.18-1.76,0.55c-0.44,0.36-0.67,0.87-0.67,1.51
			c0,0.7,0.26,1.25,0.78,1.64s1.34,0.82,2.44,1.31c0.64,0.29,1.27,0.6,1.89,0.91c0.62,0.33,1.13,0.77,1.54,1.33s0.61,1.36,0.61,2.4
			c0,1.02-0.27,1.87-0.81,2.56s-1.21,1.21-2,1.56C429.29,155.26,428.49,155.44,427.7,155.44z"/>
		<path class="st0" d="M442.06,155.44c-1.07,0-1.98-0.09-2.74-0.28c-0.76-0.19-1.53-0.48-2.3-0.88v-3.71h0.5l1.07,1.79
			c0.73,1.22,1.86,1.82,3.39,1.82c0.88,0,1.56-0.2,2.04-0.6s0.71-0.95,0.71-1.66c0-0.58-0.15-1.04-0.45-1.39s-0.73-0.66-1.29-0.93
			c-0.56-0.26-1.25-0.59-2.04-0.97c-1.15-0.51-2.03-1.07-2.64-1.69c-0.6-0.62-0.91-1.47-0.91-2.56c0-0.87,0.23-1.63,0.71-2.32
			c0.48-0.69,1.09-1.24,1.84-1.64c0.75-0.41,1.54-0.61,2.39-0.61c0.79,0,1.54,0.09,2.26,0.28c0.7,0.19,1.41,0.46,2.09,0.81v3.68
			h-0.46l-1.09-1.72c-0.73-1.15-1.63-1.72-2.69-1.72c-0.73,0-1.32,0.18-1.76,0.55c-0.44,0.36-0.67,0.87-0.67,1.51
			c0,0.7,0.26,1.25,0.78,1.64s1.34,0.82,2.44,1.31c0.64,0.29,1.27,0.6,1.89,0.91c0.62,0.33,1.13,0.77,1.54,1.33s0.61,1.36,0.61,2.4
			c0,1.02-0.27,1.87-0.81,2.56s-1.21,1.21-2,1.56C443.65,155.26,442.86,155.44,442.06,155.44z"/>
		<path class="st0" d="M451.01,155.11v-0.53l2.12-1.07v-9.91l-2.02-1.69v-0.26l4.91-1.82h0.23v13.7l2.06,1.07v0.53L451.01,155.11
			L451.01,155.11z M454.6,135.97c-0.6,0-1.09-0.2-1.49-0.6c-0.4-0.4-0.6-0.89-0.6-1.49c0-0.62,0.2-1.12,0.6-1.51
			s0.89-0.58,1.49-0.58s1.09,0.19,1.49,0.58s0.6,0.89,0.6,1.51c0,0.6-0.2,1.09-0.6,1.49S455.19,135.97,454.6,135.97z"/>
		<path class="st0" d="M461.39,155.11v-0.53l2.12-1.07v-9.91l-2.02-1.66v-0.26l4.58-1.86h0.23l0.3,2.46h0.16
			c0.84-0.82,1.64-1.44,2.42-1.84c0.78-0.41,1.64-0.61,2.62-0.61c1.28,0,2.35,0.33,3.2,0.98s1.28,1.63,1.28,2.93v9.79l2.09,1.07
			v0.53h-7.43v-0.53l2.18-1.07v-8.25c0-0.95-0.29-1.66-0.87-2.14s-1.32-0.71-2.22-0.71c-0.55,0-1.16,0.09-1.82,0.26
			c-0.67,0.18-1.19,0.45-1.59,0.83v10.02l2.18,1.07v0.53L461.39,155.11L461.39,155.11z"/>
		<path class="st0" d="M488.07,150.33c-0.99,0-1.91-0.18-2.75-0.53c-0.4,0.18-0.68,0.4-0.85,0.66c-0.16,0.26-0.25,0.55-0.25,0.87
			c0,1.11,0.79,1.66,2.39,1.66h3.92c1.63,0,2.84,0.36,3.63,1.07s1.17,1.79,1.17,3.21c0,0.95-0.33,1.88-0.98,2.77
			s-1.58,1.63-2.77,2.18c-1.19,0.56-2.61,0.85-4.24,0.85c-2.1,0-3.61-0.37-4.54-1.11c-0.93-0.74-1.39-1.65-1.39-2.74
			c0-0.79,0.2-1.51,0.6-2.12l2.26-1.46v-0.16c-0.84-0.18-1.48-0.51-1.92-1.01s-0.67-1.11-0.67-1.84c0-0.87,0.3-1.59,0.89-2.18
			l1.79-0.97v-0.2c-0.7-0.46-1.26-1.07-1.68-1.79c-0.41-0.73-0.61-1.53-0.61-2.42c0-0.99,0.26-1.89,0.78-2.69
			c0.52-0.79,1.24-1.42,2.14-1.88c0.9-0.45,1.93-0.68,3.09-0.68c0.51,0,1.05,0.06,1.61,0.18c0.56,0.13,1.05,0.27,1.44,0.45l4.97-0.3
			v1.82l-3.15-0.2l-0.14,0.14c0.38,0.38,0.68,0.85,0.91,1.43c0.23,0.58,0.35,1.15,0.35,1.72c0,0.99-0.26,1.89-0.79,2.69
			s-1.25,1.43-2.14,1.89C490.24,150.1,489.22,150.33,488.07,150.33z M483.86,158.79c0,0.95,0.36,1.73,1.09,2.36
			c0.73,0.62,1.66,0.93,2.79,0.93c0.98,0,1.81-0.19,2.54-0.56c0.72-0.38,1.28-0.87,1.69-1.46c0.41-0.6,0.61-1.23,0.61-1.89
			c0-0.95-0.25-1.61-0.76-1.98c-0.51-0.36-1.41-0.55-2.69-0.55h-3.39c-0.11,0-0.23,0-0.33,0c-0.58,0.33-0.98,0.76-1.21,1.27
			C483.97,157.44,483.86,158.06,483.86,158.79z M488.36,148.94c0.84,0,1.5-0.37,1.98-1.11s0.71-1.63,0.71-2.67
			c0-1.24-0.31-2.22-0.93-2.93c-0.62-0.71-1.37-1.07-2.26-1.07c-0.9,0-1.6,0.37-2.08,1.11s-0.71,1.64-0.71,2.7
			c0,1.17,0.31,2.13,0.91,2.87C486.6,148.57,487.39,148.94,488.36,148.94z"/>
	</g>
	<g>
		<path class="st1" d="M1145.04,402.87v-0.53l2.69-1.33v-18.17l-2.69-1.33v-0.53h9.22c2.32,0,4.15,0.48,5.49,1.44
			c1.34,0.97,2,2.28,2,3.96c0,1.24-0.42,2.33-1.26,3.29c-0.84,0.95-1.95,1.68-3.31,2.18l6.27,9.25l2.22,1.23v0.53h-5.34l-6.37-10.09
			h-2.75v8.2l2.48,1.36v0.53L1145.04,402.87L1145.04,402.87z M1153.17,382.8h-1.96v8.23h2.16c1.37,0,2.5-0.39,3.4-1.17
			c0.89-0.79,1.35-1.79,1.35-3c0-1.26-0.43-2.25-1.31-2.97C1155.92,383.16,1154.71,382.8,1153.17,382.8z"/>
		<path class="st1" d="M1174.1,403.2c-2.17,0-3.88-0.65-5.14-1.96s-1.89-3.04-1.89-5.21c0-1.63,0.33-3.1,1.01-4.38
			s1.57-2.28,2.69-3.01s2.33-1.07,3.63-1.07c1.77,0,3.15,0.6,4.14,1.81s1.51,2.93,1.53,5.19l-0.16,0.16h-9.79
			c0.02,1.02,0.22,1.96,0.58,2.82c0.36,0.87,0.95,1.56,1.76,2.09c0.8,0.53,1.9,0.79,3.27,0.79c1.26,0,2.69-0.42,4.28-1.26h0.1v0.4
			c-0.53,1.02-1.32,1.88-2.36,2.57C1176.71,402.85,1175.49,403.2,1174.1,403.2z M1173.8,389.04c-0.98,0-1.78,0.36-2.4,1.09
			s-1.04,1.76-1.21,3.09h7.07c-0.23-1.51-0.62-2.57-1.19-3.21C1175.48,389.35,1174.73,389.04,1173.8,389.04z"/>
		<path class="st1" d="M1183.12,410.5v-0.53l2.12-1.07v-17.52l-2.02-1.69v-0.26l4.58-1.86h0.23l0.26,2.02h0.23
			c0.82-0.7,1.62-1.22,2.39-1.54c0.78-0.33,1.62-0.48,2.52-0.48c1.08,0,2.06,0.29,2.92,0.87c0.87,0.58,1.54,1.39,2.06,2.44
			c0.51,1.05,0.77,2.32,0.77,3.8c0,1.79-0.34,3.32-1.03,4.6c-0.69,1.27-1.61,2.25-2.75,2.92c-1.15,0.68-2.42,1.01-3.82,1.01
			c-1.19,0-2.27-0.11-3.21-0.33v6.04l2.42,1.07v0.53L1183.12,410.5L1183.12,410.5z M1191.41,389.97c-1.07,0-2.08,0.3-3.05,0.89v9.42
			c0.58,0.49,1.17,0.82,1.81,1.01c0.63,0.19,1.34,0.28,2.1,0.28c0.67,0,1.28-0.19,1.86-0.56c0.58-0.38,1.03-0.99,1.37-1.84
			s0.51-2,0.51-3.43c0-1.35-0.21-2.45-0.63-3.29s-0.97-1.46-1.68-1.88C1193,390.16,1192.25,389.97,1191.41,389.97z"/>
		<path class="st1" d="M1205.78,403.2c-1.07,0-1.94-0.32-2.64-0.95s-1.05-1.5-1.05-2.6c0-1.08,0.39-2.02,1.17-2.8
			c0.79-0.79,2.15-1.41,4.1-1.88l3.15-0.73v-2.32c0-0.79-0.3-1.46-0.88-2c-0.59-0.53-1.26-0.79-2.04-0.79
			c-0.82,0-1.39,0.21-1.71,0.63s-0.48,0.99-0.48,1.72v1.07l-0.16,0.16h-1.82c-0.33,0-0.56-0.06-0.68-0.18s-0.18-0.38-0.18-0.78
			c0-0.49,0.15-0.98,0.45-1.48c0.3-0.5,0.76-0.93,1.37-1.31c0.66-0.42,1.34-0.76,2.02-1.01c0.69-0.25,1.42-0.38,2.18-0.38
			c0.84,0,1.65,0.12,2.44,0.35c0.79,0.23,1.42,0.62,1.91,1.17c0.49,0.55,0.73,1.29,0.73,2.22v9.25c0.15,0.15,0.37,0.29,0.65,0.4
			s0.66,0.16,1.15,0.16h1.16l0.14,0.06v0.2c-0.26,0.46-0.67,0.88-1.21,1.25c-0.54,0.36-1.2,0.55-1.98,0.55
			c-0.75,0-1.36-0.18-1.82-0.55c-0.46-0.36-0.79-0.87-0.99-1.51h-0.23c-0.58,0.58-1.27,1.07-2.1,1.46
			C1207.58,403,1206.71,403.2,1205.78,403.2z M1205.11,398.92c0,1.37,0.8,2.06,2.42,2.06c0.49,0,0.96-0.05,1.41-0.15
			c0.45-0.1,0.98-0.27,1.58-0.51v-4.91c-1.59,0.31-2.77,0.64-3.55,0.99c-0.78,0.35-1.28,0.73-1.51,1.15
			C1205.23,397.95,1205.11,398.41,1205.11,398.92z"/>
		<path class="st1" d="M1218.68,402.87v-0.53l2.12-1.07v-9.92l-2.02-1.69v-0.26l4.91-1.82h0.23v13.7l2.06,1.07v0.53L1218.68,402.87
			L1218.68,402.87z M1222.27,383.73c-0.6,0-1.09-0.2-1.49-0.6s-0.6-0.89-0.6-1.49c0-0.62,0.2-1.12,0.6-1.51s0.89-0.58,1.49-0.58
			s1.09,0.19,1.49,0.58c0.4,0.39,0.6,0.89,0.6,1.51c0,0.6-0.2,1.09-0.6,1.49S1222.86,383.73,1222.27,383.73z"/>
		<path class="st1" d="M1229.16,402.87v-0.53l2.12-1.07v-9.89l-2.02-1.69v-0.26l4.58-1.86h0.26l0.3,2.85h0.14
			c0.51-0.84,0.98-1.46,1.39-1.88c0.42-0.41,0.82-0.68,1.19-0.79c0.38-0.12,0.76-0.18,1.16-0.18c0.2,0,0.42,0.03,0.65,0.08
			s0.42,0.12,0.58,0.18c0.26,0.11,0.5,0.24,0.7,0.4c0.2,0.15,0.3,0.33,0.3,0.53s-0.05,0.4-0.14,0.6l-0.7,1.76h-0.23l-1.16-0.46
			c-0.26-0.09-0.52-0.15-0.77-0.18c-0.24-0.04-0.49-0.05-0.73-0.05c-0.95,0-1.73,0.45-2.36,1.36v9.49l2.42,1.07v0.53h-7.67v-0.01
			H1229.16z"/>
		<path class="st1" d="M1242.62,395.5v-2.32h9.12v2.32H1242.62z"/>
		<path class="st1" d="M1255.4,402.87v-0.53l2.69-1.33v-18.17l-2.69-1.33v-0.53h9.22c2.32,0,4.15,0.48,5.49,1.44
			c1.34,0.97,2,2.28,2,3.96c0,1.24-0.42,2.33-1.26,3.29c-0.84,0.95-1.95,1.68-3.31,2.18l6.27,9.25l2.22,1.23v0.53h-5.34l-6.37-10.09
			h-2.75v8.2l2.49,1.36v0.53L1255.4,402.87L1255.4,402.87z M1263.53,382.8h-1.96v8.23h2.16c1.37,0,2.5-0.39,3.4-1.17
			c0.89-0.79,1.35-1.79,1.35-3c0-1.26-0.43-2.25-1.31-2.97C1266.28,383.16,1265.07,382.8,1263.53,382.8z"/>
		<path class="st1" d="M1284.45,403.2c-2.17,0-3.88-0.65-5.14-1.96s-1.89-3.04-1.89-5.21c0-1.63,0.33-3.1,1.01-4.38
			s1.57-2.28,2.69-3.01s2.33-1.07,3.63-1.07c1.77,0,3.15,0.6,4.14,1.81s1.51,2.93,1.53,5.19l-0.16,0.16h-9.79
			c0.02,1.02,0.22,1.96,0.58,2.82c0.36,0.87,0.95,1.56,1.76,2.09c0.8,0.53,1.9,0.79,3.27,0.79c1.26,0,2.69-0.42,4.28-1.26h0.1v0.4
			c-0.53,1.02-1.32,1.88-2.36,2.57C1287.06,402.85,1285.85,403.2,1284.45,403.2z M1284.16,389.04c-0.97,0-1.78,0.36-2.4,1.09
			s-1.04,1.76-1.21,3.09h7.07c-0.23-1.51-0.62-2.57-1.19-3.21C1285.84,389.35,1285.09,389.04,1284.16,389.04z"/>
		<path class="st1" d="M1299.41,403.2c-1.31,0-2.37-0.33-3.21-0.99c-0.83-0.67-1.25-1.63-1.25-2.92v-9.82l-2.12-1.03v-0.53h5.24
			v9.85c0,0.93,0.28,1.63,0.85,2.12c0.56,0.49,1.3,0.73,2.2,0.73c0.55,0,1.16-0.09,1.82-0.28c0.66-0.19,1.19-0.47,1.59-0.85v-10.02
			l-2.26-1.03v-0.53h5.41v13.47l2.29,0.97v0.53h-5.44v-2.09h-0.16c-0.82,0.82-1.62,1.43-2.39,1.82
			C1301.21,403,1300.37,403.2,1299.41,403.2z"/>
		<path class="st1" d="M1317.9,403.2c-1.07,0-1.98-0.09-2.74-0.28s-1.53-0.48-2.3-0.88v-3.71h0.5l1.07,1.79
			c0.73,1.22,1.86,1.82,3.39,1.82c0.88,0,1.56-0.2,2.04-0.6s0.71-0.95,0.71-1.66c0-0.58-0.15-1.04-0.45-1.39
			c-0.3-0.35-0.73-0.66-1.29-0.93c-0.56-0.26-1.25-0.59-2.04-0.97c-1.15-0.51-2.03-1.07-2.64-1.69c-0.6-0.61-0.91-1.47-0.91-2.56
			c0-0.87,0.23-1.63,0.71-2.32s1.09-1.24,1.84-1.64c0.75-0.41,1.54-0.61,2.39-0.61c0.79,0,1.54,0.09,2.26,0.28
			c0.71,0.19,1.41,0.46,2.09,0.81v3.68h-0.46l-1.09-1.72c-0.73-1.15-1.63-1.72-2.69-1.72c-0.73,0-1.32,0.18-1.76,0.55
			c-0.44,0.36-0.66,0.87-0.66,1.51c0,0.7,0.26,1.26,0.78,1.64c0.52,0.39,1.33,0.82,2.44,1.31c0.64,0.29,1.27,0.6,1.89,0.91
			s1.13,0.76,1.54,1.33c0.41,0.56,0.61,1.36,0.61,2.4c0,1.02-0.27,1.87-0.81,2.56s-1.21,1.2-2,1.56S1318.69,403.2,1317.9,403.2z"/>
		<path class="st1" d="M1333.81,403.2c-2.17,0-3.88-0.65-5.14-1.96s-1.89-3.04-1.89-5.21c0-1.63,0.33-3.1,1.01-4.38
			s1.57-2.28,2.69-3.01s2.33-1.07,3.63-1.07c1.77,0,3.15,0.6,4.14,1.81s1.51,2.93,1.53,5.19l-0.16,0.16h-9.79
			c0.02,1.02,0.22,1.96,0.58,2.82c0.36,0.87,0.95,1.56,1.76,2.09c0.8,0.53,1.9,0.79,3.27,0.79c1.26,0,2.69-0.42,4.28-1.26h0.1v0.4
			c-0.53,1.02-1.32,1.88-2.36,2.57C1336.42,402.85,1335.2,403.2,1333.81,403.2z M1333.52,389.04c-0.98,0-1.78,0.36-2.4,1.09
			s-1.04,1.76-1.21,3.09h7.07c-0.23-1.51-0.62-2.57-1.19-3.21C1335.2,389.35,1334.45,389.04,1333.52,389.04z"/>
	</g>
	<g>
		<rect x="276.46" y="146.03" class="st2" width="43.59" height="0.73"/>
		<polygon class="st2" points="320.59,146.4 315.26,151.36 314.76,150.83 319.52,146.4 314.76,141.98 315.26,141.45 		"/>
	</g>
	<g>
		<rect x="511.48" y="146.03" class="st2" width="43.59" height="0.73"/>
		<polygon class="st2" points="555.61,146.4 550.27,151.36 549.78,150.83 554.53,146.4 549.78,141.98 550.27,141.45 		"/>
	</g>
	<g>
		<rect x="807.37" y="146.03" class="st2" width="43.59" height="0.73"/>
		<polygon class="st2" points="851.5,146.4 846.17,151.36 845.67,150.83 850.43,146.4 845.67,141.98 846.17,141.45 		"/>
	</g>
	<g>
		<rect x="1106.53" y="146.03" class="st2" width="43.59" height="0.73"/>
		<polygon class="st2" points="1150.66,146.4 1145.32,151.36 1144.83,150.83 1149.58,146.4 1144.83,141.98 1145.32,141.45 		"/>
	</g>
	<g>
		<rect x="1266.16" y="146.03" class="st2" width="43.59" height="0.73"/>
		<polygon class="st2" points="1310.29,146.4 1304.95,151.36 1304.45,150.83 1309.22,146.4 1304.45,141.98 1304.95,141.45 		"/>
	</g>
	<g>
		<rect x="1396.46" y="146.03" class="st2" width="43.59" height="0.73"/>
		<polygon class="st2" points="1440.59,146.4 1435.26,151.36 1434.76,150.83 1439.52,146.4 1434.76,141.98 1435.26,141.45 		"/>
	</g>
	<rect x="1292.18" y="290.47" class="st2" width="0.73" height="71.03"/>
	<rect x="1353.23" y="176.04" class="st2" width="0.73" height="114.66"/>
	<rect x="1292.18" y="290.47" class="st2" width="122.83" height="0.73"/>
	<rect x="677.09" y="528.3" class="st2" width="665.4" height="0.73"/>
	<polygon class="st2" points="1297.51,356.7 1292.54,362.03 1287.59,356.7 1288.12,356.2 1292.54,360.96 1296.97,356.2 	"/>
	<rect x="1414.3" y="290.47" class="st2" width="0.73" height="206.72"/>
	<polygon class="st2" points="1419.61,492.39 1414.66,497.72 1409.7,492.39 1410.23,491.89 1414.66,496.66 1419.08,491.89 	"/>
	<rect x="1210.1" y="175.75" class="st2" width="0.73" height="186.17"/>
	<polygon class="st2" points="1205.51,180.56 1210.46,175.22 1215.42,180.56 1214.89,181.05 1210.46,176.3 1206.04,181.05 	"/>
	<rect x="677.08" y="175.75" class="st2" width="0.73" height="353.28"/>
	<polygon class="st2" points="672.49,180.56 677.45,175.22 682.41,180.56 681.87,181.05 677.45,176.3 673.03,181.05 	"/>
</g>
</svg>
